<svg width="480" height="147" viewBox="0 0 480 147" fill="none" xmlns="http://www.w3.org/2000/svg">
<g clip-path="url(#clip0_11_130)">
<path fill-rule="evenodd" clip-rule="evenodd" d="M48.8552 147L97.7104 98H48.8552V0L0 48.8833V147H48.8552Z" fill="#2A2E86"/>
<path fill-rule="evenodd" clip-rule="evenodd" d="M348.578 101.613C331.459 101.613 321.835 89.0253 321.835 73.4663C321.835 60.9738 328.842 45.2926 348.093 45.2926C360.108 45.2926 367.86 52.6594 370.608 56.0899L386.205 40.4497C376.795 29.1837 362.671 22.0166 346.872 22.0166C318.54 22.0166 296.186 43.0479 296.186 73.4663C296.186 101.88 318.54 124.916 346.872 124.916C363.833 124.916 378.866 116.655 388.204 103.931L372.509 88.1859C367.543 95.9892 359.438 101.613 348.578 101.613ZM442.124 101.674H422.654V82.0952H442.124C448.175 82.0952 454.299 84.4864 454.299 91.857C454.299 99.231 448.175 101.674 442.124 101.674ZM444.566 61.2178H422.654V46.5492H471.453V24.4982H397.005V122.498C397.005 122.498 433.592 122.496 445.787 122.496C465.345 122.496 480.002 112.664 480.002 91.857C480.002 71.0148 465.345 61.2178 444.566 61.2178ZM195.421 122.498H221.071V46.5492H260.154V122.498H285.804V24.4982H195.421V122.498Z" fill="#2A2E86"/>
<path fill-rule="evenodd" clip-rule="evenodd" d="M97.8346 0L48.9795 49.0015H97.8346V147L146.69 98.1181V0H97.8346Z" fill="#EA5616"/>
</g>
<defs>
<clipPath id="clip0_11_130">
<rect width="480" height="147" fill="white"/>
</clipPath>
</defs>
</svg>
